<?xml version="1.0" encoding="UTF-8" standalone="no"?>
<!DOCTYPE svg PUBLIC "-//W3C//DTD SVG 1.1//EN"
 "http://www.w3.org/Graphics/SVG/1.1/DTD/svg11.dtd">
<!-- Generated by graphviz version 2.43.0 (0)
 -->
<!-- Title: %3 Pages: 1 -->
<svg width="302pt" height="1340pt"
 viewBox="0.00 0.00 301.50 1340.00" xmlns="http://www.w3.org/2000/svg" xmlns:xlink="http://www.w3.org/1999/xlink">
<g id="graph0" class="graph" transform="scale(1 1) rotate(0) translate(4 1336)">
<title>%3</title>
<polygon fill="white" stroke="transparent" points="-4,4 -4,-1336 297.5,-1336 297.5,4 -4,4"/>
<!-- EEG -->
<g id="node1" class="node">
<title>EEG</title>
<path fill="none" stroke="black" d="M260,-1332C260,-1332 120,-1332 120,-1332 114,-1332 108,-1326 108,-1320 108,-1320 108,-1308 108,-1308 108,-1302 114,-1296 120,-1296 120,-1296 260,-1296 260,-1296 266,-1296 272,-1302 272,-1308 272,-1308 272,-1320 272,-1320 272,-1326 266,-1332 260,-1332"/>
<text text-anchor="middle" x="190" y="-1310.9" font-family="Times,serif" font-size="12.00">EEG data preprocessing</text>
</g>
<!-- Enrich -->
<g id="node2" class="node">
<title>Enrich</title>
<path fill="none" stroke="black" d="M236,-1260C236,-1260 144,-1260 144,-1260 138,-1260 132,-1254 132,-1248 132,-1248 132,-1236 132,-1236 132,-1230 138,-1224 144,-1224 144,-1224 236,-1224 236,-1224 242,-1224 248,-1230 248,-1236 248,-1236 248,-1248 248,-1248 248,-1254 242,-1260 236,-1260"/>
<text text-anchor="middle" x="190" y="-1238.9" font-family="Times,serif" font-size="12.00">data enrichment</text>
</g>
<!-- EEG&#45;&gt;Enrich -->
<g id="edge1" class="edge">
<title>EEG&#45;&gt;Enrich</title>
<path fill="none" stroke="black" d="M190,-1295.7C190,-1287.98 190,-1278.71 190,-1270.11"/>
<polygon fill="black" stroke="black" points="193.5,-1270.1 190,-1260.1 186.5,-1270.1 193.5,-1270.1"/>
</g>
<!-- CleanSort -->
<g id="node3" class="node">
<title>CleanSort</title>
<path fill="none" stroke="black" d="M263.5,-1188C263.5,-1188 116.5,-1188 116.5,-1188 110.5,-1188 104.5,-1182 104.5,-1176 104.5,-1176 104.5,-1164 104.5,-1164 104.5,-1158 110.5,-1152 116.5,-1152 116.5,-1152 263.5,-1152 263.5,-1152 269.5,-1152 275.5,-1158 275.5,-1164 275.5,-1164 275.5,-1176 275.5,-1176 275.5,-1182 269.5,-1188 263.5,-1188"/>
<text text-anchor="middle" x="190" y="-1166.9" font-family="Times,serif" font-size="12.00">data cleaning and sorting</text>
</g>
<!-- Enrich&#45;&gt;CleanSort -->
<g id="edge2" class="edge">
<title>Enrich&#45;&gt;CleanSort</title>
<path fill="none" stroke="black" d="M190,-1223.7C190,-1215.98 190,-1206.71 190,-1198.11"/>
<polygon fill="black" stroke="black" points="193.5,-1198.1 190,-1188.1 186.5,-1198.1 193.5,-1198.1"/>
</g>
<!-- S1 -->
<g id="node4" class="node">
<title>S1</title>
<path fill="none" stroke="black" d="M237,-1116C237,-1116 143,-1116 143,-1116 137,-1116 131,-1110 131,-1104 131,-1104 131,-1092 131,-1092 131,-1086 137,-1080 143,-1080 143,-1080 237,-1080 237,-1080 243,-1080 249,-1086 249,-1092 249,-1092 249,-1104 249,-1104 249,-1110 243,-1116 237,-1116"/>
<text text-anchor="middle" x="190" y="-1094.9" font-family="Times,serif" font-size="12.00">spectral analysis</text>
</g>
<!-- CleanSort&#45;&gt;S1 -->
<g id="edge11" class="edge">
<title>CleanSort&#45;&gt;S1</title>
<path fill="none" stroke="black" d="M190,-1151.7C190,-1143.98 190,-1134.71 190,-1126.11"/>
<polygon fill="black" stroke="black" points="193.5,-1126.1 190,-1116.1 186.5,-1126.1 193.5,-1126.1"/>
</g>
<!-- S2 -->
<g id="node5" class="node">
<title>S2</title>
<path fill="none" stroke="black" d="M215,-1044C215,-1044 35,-1044 35,-1044 29,-1044 23,-1038 23,-1032 23,-1032 23,-1020 23,-1020 23,-1014 29,-1008 35,-1008 35,-1008 215,-1008 215,-1008 221,-1008 227,-1014 227,-1020 227,-1020 227,-1032 227,-1032 227,-1038 221,-1044 215,-1044"/>
<text text-anchor="middle" x="125" y="-1022.9" font-family="Times,serif" font-size="12.00">phase synchronization analysis</text>
</g>
<!-- S1&#45;&gt;S2 -->
<g id="edge3" class="edge">
<title>S1&#45;&gt;S2</title>
<path fill="none" stroke="black" d="M173.93,-1079.7C166.06,-1071.22 156.44,-1060.86 147.83,-1051.58"/>
<polygon fill="black" stroke="black" points="150.25,-1049.05 140.88,-1044.1 145.12,-1053.81 150.25,-1049.05"/>
</g>
<!-- T7 -->
<g id="node19" class="node">
<title>T7</title>
<path fill="none" stroke="black" d="M281.5,-36C281.5,-36 158.5,-36 158.5,-36 152.5,-36 146.5,-30 146.5,-24 146.5,-24 146.5,-12 146.5,-12 146.5,-6 152.5,0 158.5,0 158.5,0 281.5,0 281.5,0 287.5,0 293.5,-6 293.5,-12 293.5,-12 293.5,-24 293.5,-24 293.5,-30 287.5,-36 281.5,-36"/>
<text text-anchor="middle" x="220" y="-14.9" font-family="Times,serif" font-size="12.00">signal postprocessing</text>
</g>
<!-- S1&#45;&gt;T7 -->
<g id="edge19" class="edge">
<title>S1&#45;&gt;T7</title>
<path fill="none" stroke="black" d="M208.53,-1079.95C218.03,-1070.26 229.04,-1057.41 236,-1044 254.76,-1007.83 258,-995.75 258,-955 258,-955 258,-955 258,-161 258,-119.63 242.77,-73.72 231.59,-45.61"/>
<polygon fill="black" stroke="black" points="234.72,-44.02 227.69,-36.09 228.24,-46.67 234.72,-44.02"/>
</g>
<!-- S3 -->
<g id="node6" class="node">
<title>S3</title>
<path fill="none" stroke="black" d="M178.5,-972C178.5,-972 59.5,-972 59.5,-972 53.5,-972 47.5,-966 47.5,-960 47.5,-960 47.5,-948 47.5,-948 47.5,-942 53.5,-936 59.5,-936 59.5,-936 178.5,-936 178.5,-936 184.5,-936 190.5,-942 190.5,-948 190.5,-948 190.5,-960 190.5,-960 190.5,-966 184.5,-972 178.5,-972"/>
<text text-anchor="middle" x="119" y="-950.9" font-family="Times,serif" font-size="12.00">phase space analysis</text>
</g>
<!-- S2&#45;&gt;S3 -->
<g id="edge4" class="edge">
<title>S2&#45;&gt;S3</title>
<path fill="none" stroke="black" d="M123.52,-1007.7C122.86,-999.98 122.06,-990.71 121.32,-982.11"/>
<polygon fill="black" stroke="black" points="124.81,-981.77 120.47,-972.1 117.83,-982.37 124.81,-981.77"/>
</g>
<!-- S4 -->
<g id="node7" class="node">
<title>S4</title>
<path fill="none" stroke="black" d="M218,-900C218,-900 12,-900 12,-900 6,-900 0,-894 0,-888 0,-888 0,-876 0,-876 0,-870 6,-864 12,-864 12,-864 218,-864 218,-864 224,-864 230,-870 230,-876 230,-876 230,-888 230,-888 230,-894 224,-900 218,-900"/>
<text text-anchor="middle" x="115" y="-878.9" font-family="Times,serif" font-size="12.00">Recurrence Quantification Analysis</text>
</g>
<!-- S3&#45;&gt;S4 -->
<g id="edge5" class="edge">
<title>S3&#45;&gt;S4</title>
<path fill="none" stroke="black" d="M118.01,-935.7C117.57,-927.98 117.04,-918.71 116.55,-910.11"/>
<polygon fill="black" stroke="black" points="120.04,-909.89 115.98,-900.1 113.05,-910.29 120.04,-909.89"/>
</g>
<!-- S5 -->
<g id="node8" class="node">
<title>S5</title>
<path fill="none" stroke="black" d="M192.5,-828C192.5,-828 37.5,-828 37.5,-828 31.5,-828 25.5,-822 25.5,-816 25.5,-816 25.5,-804 25.5,-804 25.5,-798 31.5,-792 37.5,-792 37.5,-792 192.5,-792 192.5,-792 198.5,-792 204.5,-798 204.5,-804 204.5,-804 204.5,-816 204.5,-816 204.5,-822 198.5,-828 192.5,-828"/>
<text text-anchor="middle" x="115" y="-806.9" font-family="Times,serif" font-size="12.00">Higuchi Fractal Dimension</text>
</g>
<!-- S4&#45;&gt;S5 -->
<g id="edge6" class="edge">
<title>S4&#45;&gt;S5</title>
<path fill="none" stroke="black" d="M115,-863.7C115,-855.98 115,-846.71 115,-838.11"/>
<polygon fill="black" stroke="black" points="118.5,-838.1 115,-828.1 111.5,-838.1 118.5,-838.1"/>
</g>
<!-- S6 -->
<g id="node9" class="node">
<title>S6</title>
<path fill="none" stroke="black" d="M134.5,-756C134.5,-756 95.5,-756 95.5,-756 89.5,-756 83.5,-750 83.5,-744 83.5,-744 83.5,-732 83.5,-732 83.5,-726 89.5,-720 95.5,-720 95.5,-720 134.5,-720 134.5,-720 140.5,-720 146.5,-726 146.5,-732 146.5,-732 146.5,-744 146.5,-744 146.5,-750 140.5,-756 134.5,-756"/>
<text text-anchor="middle" x="115" y="-734.9" font-family="Times,serif" font-size="12.00">MFDFA</text>
</g>
<!-- S5&#45;&gt;S6 -->
<g id="edge7" class="edge">
<title>S5&#45;&gt;S6</title>
<path fill="none" stroke="black" d="M115,-791.7C115,-783.98 115,-774.71 115,-766.11"/>
<polygon fill="black" stroke="black" points="118.5,-766.1 115,-756.1 111.5,-766.1 118.5,-766.1"/>
</g>
<!-- S7 -->
<g id="node10" class="node">
<title>S7</title>
<path fill="none" stroke="black" d="M164,-684C164,-684 66,-684 66,-684 60,-684 54,-678 54,-672 54,-672 54,-660 54,-660 54,-654 60,-648 66,-648 66,-648 164,-648 164,-648 170,-648 176,-654 176,-660 176,-660 176,-672 176,-672 176,-678 170,-684 164,-684"/>
<text text-anchor="middle" x="115" y="-662.9" font-family="Times,serif" font-size="12.00">Transfer Entropy</text>
</g>
<!-- S6&#45;&gt;S7 -->
<g id="edge8" class="edge">
<title>S6&#45;&gt;S7</title>
<path fill="none" stroke="black" d="M115,-719.7C115,-711.98 115,-702.71 115,-694.11"/>
<polygon fill="black" stroke="black" points="118.5,-694.1 115,-684.1 111.5,-694.1 118.5,-694.1"/>
</g>
<!-- S8 -->
<g id="node11" class="node">
<title>S8</title>
<path fill="none" stroke="black" d="M160.5,-612C160.5,-612 65.5,-612 65.5,-612 59.5,-612 53.5,-606 53.5,-600 53.5,-600 53.5,-588 53.5,-588 53.5,-582 59.5,-576 65.5,-576 65.5,-576 160.5,-576 160.5,-576 166.5,-576 172.5,-582 172.5,-588 172.5,-588 172.5,-600 172.5,-600 172.5,-606 166.5,-612 160.5,-612"/>
<text text-anchor="middle" x="113" y="-590.9" font-family="Times,serif" font-size="12.00">Kuramoto Model</text>
</g>
<!-- S7&#45;&gt;S8 -->
<g id="edge9" class="edge">
<title>S7&#45;&gt;S8</title>
<path fill="none" stroke="black" d="M114.51,-647.7C114.29,-639.98 114.02,-630.71 113.77,-622.11"/>
<polygon fill="black" stroke="black" points="117.27,-622 113.49,-612.1 110.28,-622.2 117.27,-622"/>
</g>
<!-- S7&#45;&gt;T7 -->
<g id="edge20" class="edge">
<title>S7&#45;&gt;T7</title>
<path fill="none" stroke="black" d="M142.01,-647.87C155.11,-638.52 170.28,-626 181,-612 207.26,-577.71 220,-566.19 220,-523 220,-523 220,-523 220,-161 220,-121 220,-74.65 220,-46.08"/>
<polygon fill="black" stroke="black" points="223.5,-46.05 220,-36.05 216.5,-46.05 223.5,-46.05"/>
</g>
<!-- S9 -->
<g id="node12" class="node">
<title>S9</title>
<path fill="none" stroke="black" d="M152.5,-540C152.5,-540 65.5,-540 65.5,-540 59.5,-540 53.5,-534 53.5,-528 53.5,-528 53.5,-516 53.5,-516 53.5,-510 59.5,-504 65.5,-504 65.5,-504 152.5,-504 152.5,-504 158.5,-504 164.5,-510 164.5,-516 164.5,-516 164.5,-528 164.5,-528 164.5,-534 158.5,-540 152.5,-540"/>
<text text-anchor="middle" x="109" y="-518.9" font-family="Times,serif" font-size="12.00">Arnold Tongues</text>
</g>
<!-- S8&#45;&gt;S9 -->
<g id="edge10" class="edge">
<title>S8&#45;&gt;S9</title>
<path fill="none" stroke="black" d="M112.01,-575.7C111.57,-567.98 111.04,-558.71 110.55,-550.11"/>
<polygon fill="black" stroke="black" points="114.04,-549.89 109.98,-540.1 107.05,-550.29 114.04,-549.89"/>
</g>
<!-- T1 -->
<g id="node13" class="node">
<title>T1</title>
<path fill="none" stroke="black" d="M179.5,-468C179.5,-468 32.5,-468 32.5,-468 26.5,-468 20.5,-462 20.5,-456 20.5,-456 20.5,-444 20.5,-444 20.5,-438 26.5,-432 32.5,-432 32.5,-432 179.5,-432 179.5,-432 185.5,-432 191.5,-438 191.5,-444 191.5,-444 191.5,-456 191.5,-456 191.5,-462 185.5,-468 179.5,-468"/>
<text text-anchor="middle" x="106" y="-446.9" font-family="Times,serif" font-size="12.00">feature dimensions fitting</text>
</g>
<!-- S9&#45;&gt;T1 -->
<g id="edge18" class="edge">
<title>S9&#45;&gt;T1</title>
<path fill="none" stroke="black" d="M108.26,-503.7C107.93,-495.98 107.53,-486.71 107.16,-478.11"/>
<polygon fill="black" stroke="black" points="110.66,-477.95 106.73,-468.1 103.66,-478.25 110.66,-477.95"/>
</g>
<!-- T2 -->
<g id="node14" class="node">
<title>T2</title>
<path fill="none" stroke="black" d="M129,-396C129,-396 99,-396 99,-396 93,-396 87,-390 87,-384 87,-384 87,-372 87,-372 87,-366 93,-360 99,-360 99,-360 129,-360 129,-360 135,-360 141,-366 141,-372 141,-372 141,-384 141,-384 141,-390 135,-396 129,-396"/>
<text text-anchor="middle" x="114" y="-374.9" font-family="Times,serif" font-size="12.00">CNN</text>
</g>
<!-- T1&#45;&gt;T2 -->
<g id="edge12" class="edge">
<title>T1&#45;&gt;T2</title>
<path fill="none" stroke="black" d="M107.98,-431.7C108.86,-423.98 109.92,-414.71 110.9,-406.11"/>
<polygon fill="black" stroke="black" points="114.39,-406.44 112.05,-396.1 107.43,-405.64 114.39,-406.44"/>
</g>
<!-- T3 -->
<g id="node15" class="node">
<title>T3</title>
<path fill="none" stroke="black" d="M176,-324C176,-324 62,-324 62,-324 56,-324 50,-318 50,-312 50,-312 50,-300 50,-300 50,-294 56,-288 62,-288 62,-288 176,-288 176,-288 182,-288 188,-294 188,-300 188,-300 188,-312 188,-312 188,-318 182,-324 176,-324"/>
<text text-anchor="middle" x="119" y="-302.9" font-family="Times,serif" font-size="12.00">Kuramoto oscillator</text>
</g>
<!-- T2&#45;&gt;T3 -->
<g id="edge13" class="edge">
<title>T2&#45;&gt;T3</title>
<path fill="none" stroke="black" d="M115.24,-359.7C115.79,-351.98 116.45,-342.71 117.06,-334.11"/>
<polygon fill="black" stroke="black" points="120.56,-334.33 117.78,-324.1 113.57,-333.83 120.56,-334.33"/>
</g>
<!-- T4 -->
<g id="node16" class="node">
<title>T4</title>
<path fill="none" stroke="black" d="M162.5,-252C162.5,-252 85.5,-252 85.5,-252 79.5,-252 73.5,-246 73.5,-240 73.5,-240 73.5,-228 73.5,-228 73.5,-222 79.5,-216 85.5,-216 85.5,-216 162.5,-216 162.5,-216 168.5,-216 174.5,-222 174.5,-228 174.5,-228 174.5,-240 174.5,-240 174.5,-246 168.5,-252 162.5,-252"/>
<text text-anchor="middle" x="124" y="-230.9" font-family="Times,serif" font-size="12.00">Transformer1</text>
</g>
<!-- T3&#45;&gt;T4 -->
<g id="edge14" class="edge">
<title>T3&#45;&gt;T4</title>
<path fill="none" stroke="black" d="M120.24,-287.7C120.79,-279.98 121.45,-270.71 122.06,-262.11"/>
<polygon fill="black" stroke="black" points="125.56,-262.33 122.78,-252.1 118.57,-261.83 125.56,-262.33"/>
</g>
<!-- T5 -->
<g id="node17" class="node">
<title>T5</title>
<path fill="none" stroke="black" d="M176,-180C176,-180 82,-180 82,-180 76,-180 70,-174 70,-168 70,-168 70,-156 70,-156 70,-150 76,-144 82,-144 82,-144 176,-144 176,-144 182,-144 188,-150 188,-156 188,-156 188,-168 188,-168 188,-174 182,-180 176,-180"/>
<text text-anchor="middle" x="129" y="-158.9" font-family="Times,serif" font-size="12.00">conditional RNN</text>
</g>
<!-- T4&#45;&gt;T5 -->
<g id="edge15" class="edge">
<title>T4&#45;&gt;T5</title>
<path fill="none" stroke="black" d="M125.24,-215.7C125.79,-207.98 126.45,-198.71 127.06,-190.11"/>
<polygon fill="black" stroke="black" points="130.56,-190.33 127.78,-180.1 123.57,-189.83 130.56,-190.33"/>
</g>
<!-- T6 -->
<g id="node18" class="node">
<title>T6</title>
<path fill="none" stroke="black" d="M173.5,-108C173.5,-108 96.5,-108 96.5,-108 90.5,-108 84.5,-102 84.5,-96 84.5,-96 84.5,-84 84.5,-84 84.5,-78 90.5,-72 96.5,-72 96.5,-72 173.5,-72 173.5,-72 179.5,-72 185.5,-78 185.5,-84 185.5,-84 185.5,-96 185.5,-96 185.5,-102 179.5,-108 173.5,-108"/>
<text text-anchor="middle" x="135" y="-86.9" font-family="Times,serif" font-size="12.00">Transformer2</text>
</g>
<!-- T5&#45;&gt;T6 -->
<g id="edge16" class="edge">
<title>T5&#45;&gt;T6</title>
<path fill="none" stroke="black" d="M130.48,-143.7C131.14,-135.98 131.94,-126.71 132.68,-118.11"/>
<polygon fill="black" stroke="black" points="136.17,-118.37 133.53,-108.1 129.19,-117.77 136.17,-118.37"/>
</g>
<!-- T6&#45;&gt;T7 -->
<g id="edge17" class="edge">
<title>T6&#45;&gt;T7</title>
<path fill="none" stroke="black" d="M156.01,-71.7C166.72,-62.88 179.89,-52.03 191.5,-42.47"/>
<polygon fill="black" stroke="black" points="193.74,-45.16 199.23,-36.1 189.29,-39.76 193.74,-45.16"/>
</g>
</g>
</svg>
